LG_walk_Faster04																		
version=1																		
nRows=71																		
nColumns=19																		
inDegrees=yes																		
endheader																		
time	ground_force2_vx	ground_force2_vy	ground_force2_vz	ground_force2_px	ground_force2_py	ground_force2_pz	ground_torque2_x	ground_torque2_y	ground_torque2_z	ground_force1_vx	ground_force1_vy	ground_force1_vz	ground_force1_px	ground_force1_py	ground_force1_pz	ground_torque1_x	ground_torque1_y	ground_torque1_z
4.415	-41.448509	842.216431	97.153038	0.168286	0	-0.269893	1.20E-05	0.865997	3.00E-06	0	0	0	-0.13	0	0.305	0	0	0
4.416	-41.607098	844.984375	96.918121	0.168422	0	-0.269897	1.50E-05	0.865997	9.00E-06	0	0	0	-0.13	0	0.305	0	0	0
4.417	-41.607098	847.213135	96.291077	0.16854	0	-0.270193	1.50E-05	0.928168	9.00E-06	0	0	0	-0.13	0	0.305	0	0	0
4.418	-41.607098	847.394409	95.664352	0.168748	0	-0.270424	1.70E-05	0.970972	6.00E-06	0	0	0	-0.13	0	0.305	0	0	0
4.419	-41.214233	849.635803	94.645737	0.168664	0	-0.270516	1.70E-05	0.970972	6.00E-06	0	0	0	-0.13	0	0.305	0	0	0
4.42	-41.214233	849.635803	94.097137	0.168701	0	-0.271098	1.70E-05	0.984231	7.00E-06	0	0	0	-0.13	0	0.305	0	0	0
4.421	-41.214233	849.797791	93.783897	0.168701	0	-0.271098	1.40E-05	0.984231	7.00E-06	0	0	0	-0.13	0	0.305	0	0	0
4.422	-41.527084	851.178284	93.313675	0.168737	0	-0.271169	1.40E-05	0.984231	-2.00E-06	0	0	0	-0.13	0	0.305	0	0	0
4.423	-41.13422	852.215149	92.451752	0.169001	0	-0.271349	-2.00E-06	1.143096	-2.00E-06	0	0	0	-0.13	0	0.305	0	0	0
4.424	-40.827148	852.373291	91.746696	0.16905	0	-0.271791	8.00E-06	1.143096	-1.00E-06	0	0	0	-0.13	0	0.305	0	0	0
4.425	-40.827148	852.373291	90.728165	0.16922	0	-0.271791	8.00E-06	1.113579	9.00E-06	0	0	0	-0.13	0	0.305	0	0	0
4.426	-41.142159	852.546387	90.414879	0.16922	0	-0.272217	1.00E-05	1.113579	2.00E-06	0	0	0	-0.13	0	0.305	0	0	0
4.427	-41.223618	852.382874	89.31781	0.16922	0	-0.272217	1.00E-05	1.170412	5.00E-06	0	0	0	-0.13	0	0.305	0	0	0
4.428	-41.142159	852.382874	88.690964	0.169159	0	-0.272249	1.50E-05	1.202327	5.00E-06	0	0	0	-0.13	0	0.305	0	0	0
4.429	-41.142159	849.789307	87.907738	0.169317	0	-0.272371	1.50E-05	1.202327	5.00E-06	0	0	0	-0.13	0	0.305	0	0	0
4.43	-41.142159	849.103394	86.889038	0.169325	0	-0.272764	2.20E-05	1.202327	1.00E-05	0	0	0	-0.13	0	0.305	0	0	0
4.431	-41.142159	849.103394	86.340607	0.169325	0	-0.272764	2.20E-05	1.249337	4.00E-06	0	0	0	-0.13	0	0.305	0	0	0
4.432	-40.840134	847.719849	85.870705	0.169325	0	-0.272764	2.40E-05	1.249337	1.00E-05	0	0	0	-0.13	0	0.305	0	0	0
4.433	-40.836525	847.202942	83.833504	0.169478	0	-0.273106	6.00E-06	1.276796	6.00E-06	0	0	0	-0.13	0	0.305	0	0	0
4.434	-40.836525	844.623657	83.598358	0.169592	0	-0.273213	1.60E-05	1.276796	6.00E-06	0	0	0	-0.13	0	0.305	0	0	0
4.435	-40.8423	844.623657	82.736755	0.169865	0	-0.27344	1.60E-05	1.276796	6.00E-06	0	0	0	-0.13	0	0.305	0	0	0
4.436	-40.8423	843.936279	81.953293	0.169865	0	-0.27344	1.60E-05	1.342308	6.00E-06	0	0	0	-0.13	0	0.305	0	0	0
4.437	-40.918709	843.936279	81.404739	0.169891	0	-0.273649	8.00E-06	1.395578	2.00E-06	0	0	0	-0.13	0	0.305	0	0	0
4.438	-40.687317	843.749146	79.446068	0.169891	0	-0.273961	8.00E-06	1.395578	8.00E-06	0	0	0	-0.13	0	0.305	0	0	0
4.439	-40.530174	842.892456	79.132706	0.170265	0	-0.27409	8.00E-06	1.368988	6.00E-06	0	0	0	-0.13	0	0.305	0	0	0
4.44	-40.530174	841.176758	77.878975	0.170265	0	-0.274228	1.70E-05	1.368988	9.00E-06	0	0	0	-0.13	0	0.305	0	0	0
4.441	-40.773827	838.767822	77.644226	0.170457	0	-0.274233	3.00E-06	1.42161	6.00E-06	0	0	0	-0.13	0	0.305	0	0	0
4.442	-41.319508	838.754028	76.547073	0.170642	0	-0.274646	1.50E-05	1.528184	9.00E-06	0	0	0	-0.13	0	0.305	0	0	0
4.443	-41.323837	838.421143	74.901772	0.170648	0	-0.274646	6.00E-06	1.565432	1.10E-05	0	0	0	-0.13	0	0.305	0	0	0
4.444	-41.323837	837.537354	74.745148	0.170648	0	-0.275325	7.00E-06	1.565432	1.10E-05	0	0	0	-0.13	0	0.305	0	0	0
4.445	-41.323837	835.8302	73.726692	0.171097	0	-0.275421	7.00E-06	1.565432	9.00E-06	0	0	0	-0.13	0	0.305	0	0	0
4.446	-41.958191	832.902466	72.002937	0.171273	0	-0.275644	7.00E-06	1.603221	4.00E-06	0	0	0	-0.13	0	0.305	0	0	0
4.447	-41.958191	832.723511	71.376213	0.171273	0	-0.275787	1.70E-05	1.649081	4.00E-06	0	0	0	-0.13	0	0.305	0	0	0
4.448	-41.958191	832.376343	69.965904	0.171273	0	-0.276294	6.00E-06	1.649081	4.00E-06	0	0	0	-0.13	0	0.305	0	0	0
4.449	-42.428902	829.7854	69.495796	0.171646	0	-0.276648	2.30E-05	1.611263	9.00E-06	0	0	0	-0.13	0	0.305	0	0	0
4.45	-42.659569	829.441284	68.869232	0.17168	0	-0.276769	6.00E-06	1.599316	1.10E-05	0	0	0	-0.13	0	0.305	0	0	0
4.451	-42.428902	826.172302	67.772163	0.171873	0	-0.27699	-4.00E-06	1.611263	1.10E-05	0	0	0	-0.13	0	0.305	0	0	0
4.452	-42.513248	825.825928	67.615501	0.171899	0	-0.277241	-4.00E-06	1.783911	1.10E-05	0	0	0	-0.13	0	0.305	0	0	0
4.453	-42.513248	824.608948	66.205399	0.171899	0	-0.277497	1.20E-05	1.783911	7.00E-06	0	0	0	-0.13	0	0.305	0	0	0
4.454	-42.976746	821.680176	65.265106	0.172	0	-0.277937	1.20E-05	1.783911	7.00E-06	0	0	0	-0.13	0	0.305	0	0	0
4.455	-43.218235	819.44104	64.481682	0.172048	0	-0.278072	1.90E-05	1.78556	3.00E-06	0	0	0	-0.13	0	0.305	0	0	0
4.456	-43.534691	817.02832	63.698334	0.17238	0	-0.278181	1.10E-05	1.78556	3.00E-06	0	0	0	-0.13	0	0.305	0	0	0
4.457	-43.534691	816.159241	63.30648	0.17238	0	-0.278582	1.40E-05	1.795114	3.00E-06	0	0	0	-0.13	0	0.305	0	0	0
4.458	-43.377544	812.864685	62.209694	0.17238	0	-0.279059	1.00E-05	1.795114	4.00E-06	0	0	0	-0.13	0	0.305	0	0	0
4.459	-43.377544	812.363281	61.818199	0.172623	0	-0.279796	1.40E-05	1.795114	7.00E-06	0	0	0	-0.13	0	0.305	0	0	0
4.46	-43.46117	806.671509	61.739746	0.172808	0	-0.280154	1.00E-05	1.805826	7.00E-06	0	0	0	-0.13	0	0.305	0	0	0
4.461	-43.768967	806.50415	60.172737	0.172866	0	-0.280192	4.00E-06	1.897269	9.00E-06	0	0	0	-0.13	0	0.305	0	0	0
4.462	-43.46117	805.108154	59.702789	0.172907	0	-0.280222	2.00E-06	1.897269	5.00E-06	0	0	0	-0.13	0	0.305	0	0	0
4.463	-43.071194	800.452881	58.370934	0.172907	0	-0.280751	4.00E-06	1.782133	9.00E-06	0	0	0	-0.13	0	0.305	0	0	0
4.464	-43.071194	800.104919	58.292965	0.173074	0	-0.281375	7.00E-06	1.734077	9.00E-06	0	0	0	-0.13	0	0.305	0	0	0
4.465	-43.229782	797.689087	57.90099	0.173503	0	-0.281375	7.00E-06	1.715068	1.10E-05	0	0	0	-0.13	0	0.305	0	0	0
4.466	-43.313408	794.082947	57.196095	0.173677	0	-0.281556	4.00E-06	1.715068	1.10E-05	0	0	0	-0.13	0	0.305	0	0	0
4.467	-43.313408	792.179016	56.88269	0.173805	0	-0.281935	4.00E-06	1.838985	3.00E-06	0	0	0	-0.13	0	0.305	0	0	0
4.468	-43.313408	789.418823	55.629242	0.174005	0	-0.282056	-3.00E-06	1.838985	1.00E-06	0	0	0	-0.13	0	0.305	0	0	0
4.469	-43.62986	787.18042	55.237511	0.174193	0	-0.282514	8.00E-06	1.838985	1.00E-06	0	0	0	-0.13	0	0.305	0	0	0
4.47	-43.62986	783.720825	54.454163	0.174302	0	-0.282711	1.00E-05	1.784739	1.00E-06	0	0	0	-0.13	0	0.305	0	0	0
4.471	-43.62986	781.661499	54.376114	0.17451	0	-0.283278	1.00E-05	1.784739	9.00E-06	0	0	0	-0.13	0	0.305	0	0	0
4.472	-43.475601	778.373108	53.670822	0.17451	0	-0.283791	1.00E-05	1.780456	9.00E-06	0	0	0	-0.13	0	0.305	0	0	0
4.473	-43.708435	773.545349	52.809185	0.174517	0	-0.284282	1.20E-05	1.765928	8.00E-06	0	0	0	-0.13	0	0.305	0	0	0
4.474	-43.71204	773.200134	52.025917	0.17472	0	-0.284324	2.50E-05	1.69141	4.00E-06	0	0	0	-0.13	0	0.305	0	0	0
4.475	-44.179871	768.203491	51.555653	0.175199	0	-0.284587	2.50E-05	1.69141	4.00E-06	0	0	0	-0.13	0	0.305	0	0	0
4.476	-44.184196	766.660522	51.320702	0.175283	0	-0.284854	1.60E-05	1.760072	8.00E-06	0	0	0	-0.13	0	0.305	0	0	0
4.477	-44.186363	766.128601	51.007622	0.175474	0	-0.285194	5.00E-06	1.760072	8.00E-06	0	0	0	-0.13	0	0.305	0	0	0
4.478	-44.186363	760.786255	49.989082	0.175669	0	-0.285686	1.60E-05	1.760072	8.00E-06	0	0	0	-0.13	0	0.305	0	0	0
4.479	-44.186363	759.919983	49.832382	0.176053	0	-0.286303	1.00E-06	1.742862	8.00E-06	0	0	0	-0.13	0	0.305	0	0	0
4.48	-44.26638	756.983032	49.832382	0.176103	0	-0.286696	2.00E-05	1.678357	8.00E-06	0	0	0	-0.13	0	0.305	0	0	0
4.481	-44.423523	752.850708	49.754414	0.176399	0	-0.28716	1.50E-05	1.678357	4.00E-06	0	0	0	-0.13	0	0.305	0	0	0
4.482	-44.972809	752.155273	49.441132	0.176399	0	-0.287411	1.50E-05	1.733749	4.00E-06	0	0	0	-0.13	0	0.305	0	0	0
4.483	-44.972809	748.185425	48.970909	0.176705	0	-0.287534	1.50E-05	1.733749	1.30E-05	0	0	0	-0.13	0	0.305	0	0	0
4.484	-44.738537	746.458496	48.344501	0.176939	0	-0.288224	1.50E-05	1.664186	1.30E-05	0	0	0	-0.13	0	0.305	0	0	0
4.485	-44.738537	744.893188	47.63969	0.176963	0	-0.289073	1.50E-05	1.664186	1.10E-05	0	0	0	-0.13	0	0.305	0	0	0
